<?xml version="1.0" encoding="iso-8859-1"?>
<!-- Generator: Adobe Illustrator 16.0.0, SVG Export Plug-In . SVG Version: 6.00 Build 0)  -->
<!DOCTYPE svg PUBLIC "-//W3C//DTD SVG 1.1//EN" "http://www.w3.org/Graphics/SVG/1.1/DTD/svg11.dtd">
<svg version="1.1" id="Capa_1" xmlns="http://www.w3.org/2000/svg" xmlns:xlink="http://www.w3.org/1999/xlink" x="0px" y="0px"
	 width="252.786px" height="252.787px" viewBox="0 0 252.786 252.787" style="enable-background:new 0 0 252.786 252.787;"
	 xml:space="preserve">
<g>
	<g id="Layer_97_14_">
		<g>
			<path d="M228.768,44.28H24.054v134.988h204.708V44.28H228.768z M126.393,48.845c2.44,0,4.416,1.975,4.416,4.415
				s-1.976,4.415-4.416,4.415s-4.416-1.975-4.416-4.415S123.953,48.845,126.393,48.845z M42.634,161.972l0.021-99.825l168.883-0.079
				l0.467,99.904H42.634z"/>
			<path d="M228.737,185.534H24.049H0v22.973h252.786v-22.973H228.737z M15.271,202.631c-2.983,0-5.403-2.417-5.403-5.408
				c0-2.985,2.42-5.408,5.403-5.408c2.986,0,5.408,2.423,5.408,5.408C20.68,200.214,18.258,202.631,15.271,202.631z M32.438,202.631
				c-2.986,0-5.403-2.417-5.403-5.408c0-2.985,2.417-5.408,5.403-5.408c2.983,0,5.408,2.423,5.408,5.408
				C37.846,200.214,35.421,202.631,32.438,202.631z M49.357,203.337c-2.98,0-5.403-2.417-5.403-5.408
				c0-2.986,2.422-5.408,5.403-5.408c2.989,0,5.408,2.422,5.408,5.408C54.766,200.92,52.346,203.337,49.357,203.337z
				 M161.946,202.154h-50.582v-8.46h50.582V202.154z M222.354,202.154h-50.582v-8.46h50.582V202.154z"/>
		</g>
	</g>
</g>
<g>
</g>
<g>
</g>
<g>
</g>
<g>
</g>
<g>
</g>
<g>
</g>
<g>
</g>
<g>
</g>
<g>
</g>
<g>
</g>
<g>
</g>
<g>
</g>
<g>
</g>
<g>
</g>
<g>
</g>
</svg>
